<svg width="29" height="29" viewBox="0 0 29 29" fill="none" xmlns="http://www.w3.org/2000/svg">
<path fill-rule="evenodd" clip-rule="evenodd" d="M3.14233 14.3654C3.14233 8.167 8.16712 3.14221 14.3655 3.14221C20.5639 3.14221 25.5887 8.167 25.5887 14.3654C25.5887 20.5638 20.5639 25.5886 14.3655 25.5886C8.16712 25.5886 3.14233 20.5638 3.14233 14.3654ZM14.3655 0.142212C6.51027 0.142212 0.142334 6.51014 0.142334 14.3654C0.142334 22.2206 6.51027 28.5886 14.3655 28.5886C22.2208 28.5886 28.5887 22.2206 28.5887 14.3654C28.5887 6.51014 22.2208 0.142212 14.3655 0.142212ZM14.3558 19.662L22.7567 11.1799L20.6252 9.06879L13.29 16.4749L8.8769 12.0191L6.74541 14.1302L12.2243 19.662L13.29 20.7381L14.3558 19.662Z" fill="black"/>
</svg>
