<svg width="27" height="26" viewBox="0 0 27 26" fill="none" xmlns="http://www.w3.org/2000/svg">
<path fill-rule="evenodd" clip-rule="evenodd" d="M13.6449 0.101562C12.7741 0.101562 12.0682 0.807463 12.0682 1.67823V11.2816H2.17823C1.30746 11.2816 0.601563 11.9875 0.601563 12.8582C0.601562 13.729 1.30746 14.4349 2.17823 14.4349H12.0682V24.3249C12.0682 25.1957 12.7741 25.9016 13.6449 25.9016C14.5157 25.9016 15.2216 25.1957 15.2216 24.3249V14.4349H24.8249C25.6957 14.4349 26.4016 13.729 26.4016 12.8582C26.4016 11.9875 25.6957 11.2816 24.8249 11.2816H15.2216V1.67823C15.2216 0.80746 14.5157 0.101562 13.6449 0.101562Z" fill="#9C9AA2"/>
</svg>
