<svg width="37" height="38" viewBox="0 0 37 38" fill="none" xmlns="http://www.w3.org/2000/svg">
<path d="M18.5013 33.2929C24.6742 33.2929 29.6784 28.2888 29.6784 22.1159C29.6784 15.9429 24.6742 10.9388 18.5013 10.9388C12.3284 10.9388 7.32422 15.9429 7.32422 22.1159C7.32422 28.2888 12.3284 33.2929 18.5013 33.2929Z" stroke="#FD7B38" stroke-width="1.5" stroke-miterlimit="10"/>
<path d="M18.5015 22.1159L18.4874 13.6349C18.4945 13.6349 18.4945 13.6349 18.5015 13.6349C23.1519 13.6349 26.9825 17.4654 26.9825 22.1159C26.9825 26.7663 23.1519 30.5969 18.5015 30.5969C13.8511 30.5969 10.0276 26.7734 10.0205 22.13L18.5015 22.1159Z" fill="#FD7B38"/>
<path d="M12.334 6.31378H24.6673" stroke="#FD7B38" stroke-width="1.5" stroke-miterlimit="10"/>
<path d="M19.6582 6.31378H17.3457V11.7096H19.6582V6.31378Z" fill="#FD7B38"/>
<path d="M7.80118 12.8659L6.16602 14.501L8.61877 16.9538L10.2539 15.3186L7.80118 12.8659Z" fill="#FD7B38"/>
<path d="M30.8344 14.6543L29.1992 13.0191L26.7465 15.4719L28.3816 17.107L30.8344 14.6543Z" fill="#FD7B38"/>
</svg>
