<svg width="43" height="43" viewBox="0 0 43 43" fill="none" xmlns="http://www.w3.org/2000/svg">
<path fill-rule="evenodd" clip-rule="evenodd" d="M32.5135 10.7245C31.7976 10.0085 30.6368 10.0085 29.9208 10.7245L22.0248 18.6205L13.893 10.4887C13.1771 9.77279 12.0163 9.77279 11.3003 10.4887C10.5844 11.2047 10.5844 12.3655 11.3003 13.0815L19.432 21.2132L11.3003 29.3449C10.5843 30.0609 10.5844 31.2217 11.3003 31.9377C12.0163 32.6536 13.1771 32.6536 13.893 31.9377L22.0248 23.8059L29.9208 31.702C30.6368 32.4179 31.7976 32.4179 32.5135 31.702C33.2295 30.986 33.2295 29.8252 32.5135 29.1092L24.6175 21.2132L32.5135 13.3172C33.2295 12.6012 33.2295 11.4404 32.5135 10.7245Z" fill="black"/>
</svg>
