<svg width="365" height="231" viewBox="0 0 365 231" fill="none" xmlns="http://www.w3.org/2000/svg">
<ellipse cx="182.5" cy="114.32" rx="182.5" ry="114.32" fill="#5B5B5B"/>
<path d="M335.527 202.796C339.768 205.894 342.15 210.097 342.15 214.478C342.15 218.86 339.768 223.063 335.527 226.161C331.287 229.259 325.536 231 319.539 231C313.542 231 307.791 229.259 303.551 226.161L184.129 138.872L64.67 226.133C60.4297 229.232 54.6786 230.973 48.6819 230.973C42.6852 230.973 36.9341 229.232 32.6938 226.133C28.4535 223.035 26.0713 218.833 26.0713 214.451C26.0713 210.069 28.4535 205.867 32.6938 202.768L152.153 115.507L32.7314 28.2178C28.4911 25.1194 26.1089 20.9171 26.1089 16.5353C26.1089 12.1535 28.4911 7.9512 32.7314 4.8528C36.9717 1.75441 42.7228 0.0137419 48.7195 0.0137418C54.7162 0.0137418 60.4673 1.75441 64.7076 4.8528L184.129 92.1418L303.589 4.83905C307.829 1.74066 313.58 -7.30007e-08 319.577 0C325.573 7.30007e-08 331.325 1.74066 335.565 4.83905C339.805 7.93745 342.187 12.1398 342.187 16.5216C342.187 20.9034 339.805 25.1057 335.565 28.2041L216.106 115.507L335.527 202.796Z" fill="#F24E1E" fill-opacity="0.75"/>
<ellipse cx="121.099" cy="103.968" rx="27.9348" ry="27.6008" fill="#D9D9D9"/>
<ellipse cx="66.2479" cy="159.751" rx="16.1498" ry="13.6552" fill="#D9D9D9"/>
<ellipse cx="125.318" cy="168.467" rx="16.1498" ry="13.6552" fill="#D9D9D9"/>
<ellipse cx="168.529" cy="85.2289" rx="27.0618" ry="25.1313" fill="#D9D9D9"/>
<ellipse cx="239.239" cy="71.5738" rx="27.0618" ry="25.1313" fill="#D9D9D9"/>
<rect width="105.333" height="45.5822" transform="matrix(0.988006 -0.154415 0.154885 0.987933 149.032 64.4507)" fill="#D9D9D9"/>
<ellipse cx="21.3374" cy="9.73955" rx="21.3374" ry="9.73955" transform="matrix(-0.168523 -0.985698 0.985785 -0.168014 170.837 181.308)" fill="#D9D9D9"/>
<ellipse cx="21.3374" cy="9.73955" rx="21.3374" ry="9.73955" transform="matrix(-0.168523 -0.985698 0.985785 -0.168014 156.227 127.242)" fill="#D9D9D9"/>
<rect width="82.3009" height="18.3156" transform="matrix(-0.243523 -0.969895 0.88809 -0.45967 171.496 175.145)" fill="#D9D9D9"/>
<ellipse cx="12.9934" cy="9.72507" rx="12.9934" ry="9.72507" transform="matrix(0.992361 0.123368 -0.123747 0.992314 120.305 155.407)" fill="#D9D9D9"/>
<ellipse cx="12.9934" cy="9.72507" rx="12.9934" ry="9.72507" transform="matrix(0.992361 0.123368 -0.123747 0.992314 154.649 154.352)" fill="#D9D9D9"/>
<rect width="50.3652" height="17.7515" transform="matrix(0.999999 -0.00161357 0.0680189 0.997684 123.701 157.527)" fill="#D9D9D9"/>
<ellipse cx="12.987" cy="9.72985" rx="12.987" ry="9.72985" transform="matrix(0.818536 -0.574456 0.575653 0.817694 60.9985 157.523)" fill="#D9D9D9"/>
<ellipse cx="12.987" cy="9.72985" rx="12.987" ry="9.72985" transform="matrix(0.818536 -0.574455 0.575653 0.817694 85.73 133.706)" fill="#D9D9D9"/>
<rect width="50.3297" height="17.7657" transform="matrix(0.740228 -0.672355 0.72103 0.692904 64.9399 156.815)" fill="#D9D9D9"/>
<ellipse cx="17.9091" cy="9.72609" rx="17.9091" ry="9.72609" transform="matrix(0.958007 -0.286745 0.287565 0.957761 205.784 126.54)" fill="#D9D9D9"/>
<ellipse cx="17.9091" cy="9.72609" rx="17.9091" ry="9.72609" transform="matrix(0.958007 -0.286745 0.287565 0.957761 249.093 108.06)" fill="#D9D9D9"/>
<rect width="69.1538" height="18.0472" transform="matrix(0.927929 -0.372758 0.525713 0.850662 211.065 126.718)" fill="#D9D9D9"/>
<ellipse cx="9.67704" cy="9.73986" rx="9.67704" ry="9.73986" transform="matrix(0.0884108 0.996084 -0.996108 0.0881383 312.477 132.036)" fill="#D9D9D9"/>
<ellipse cx="9.67704" cy="9.73986" rx="9.67704" ry="9.73986" transform="matrix(0.0884108 0.996084 -0.996108 0.0881383 319.984 156.755)" fill="#D9D9D9"/>
<rect width="37.7463" height="17.6336" transform="matrix(0.253517 0.967331 -0.973228 0.229842 311.035 134.879)" fill="#D9D9D9"/>
<ellipse cx="9.67875" cy="9.73814" rx="9.67875" ry="9.73814" transform="matrix(-0.348888 0.937164 -0.937518 -0.347936 288.208 100.285)" fill="#D9D9D9"/>
<ellipse cx="9.67875" cy="9.73814" rx="9.67875" ry="9.73814" transform="matrix(-0.348888 0.937164 -0.937518 -0.347936 284.345 125.827)" fill="#D9D9D9"/>
<rect width="37.7446" height="17.6338" transform="matrix(-0.187503 0.982264 -0.977679 -0.210105 285.683 102.234)" fill="#D9D9D9"/>
<ellipse cx="9.67876" cy="9.73814" rx="9.67876" ry="9.73814" transform="matrix(-0.348888 0.937164 -0.937518 -0.347936 249.507 131.082)" fill="#D9D9D9"/>
<ellipse cx="9.67876" cy="9.73814" rx="9.67876" ry="9.73814" transform="matrix(-0.348888 0.937164 -0.937518 -0.347936 245.644 156.624)" fill="#D9D9D9"/>
<rect width="37.7446" height="17.6338" transform="matrix(-0.187503 0.982264 -0.977679 -0.210105 246.981 133.031)" fill="#D9D9D9"/>
<ellipse cx="9.30658" cy="8.97603" rx="9.30658" ry="8.97603" transform="matrix(-0.415715 0.909495 -0.909983 -0.414646 234.8 108.217)" fill="#D9D9D9"/>
<ellipse cx="9.30658" cy="8.97602" rx="9.30658" ry="8.97602" transform="matrix(-0.415715 0.909495 -0.909983 -0.414646 229.129 132.355)" fill="#D9D9D9"/>
<rect width="36.2515" height="16.269" transform="matrix(-0.264595 0.96436 -0.961673 -0.2742 232.304 109.938)" fill="#D9D9D9"/>
<ellipse cx="9.67875" cy="9.73814" rx="9.67875" ry="9.73814" transform="matrix(-0.348888 0.937164 -0.937518 -0.347936 258.817 91.86)" fill="#D9D9D9"/>
<ellipse cx="9.67876" cy="9.73814" rx="9.67876" ry="9.73814" transform="matrix(-0.348888 0.937164 -0.937518 -0.347936 254.954 117.402)" fill="#D9D9D9"/>
<rect width="37.7446" height="17.6338" transform="matrix(-0.187503 0.982264 -0.977679 -0.210105 256.292 93.809)" fill="#D9D9D9"/>
<ellipse cx="21.9894" cy="9.72564" rx="21.9894" ry="9.72564" transform="matrix(0.97349 -0.228732 0.229407 0.973331 218.851 155.122)" fill="#D9D9D9"/>
<ellipse cx="21.9894" cy="9.72564" rx="21.9894" ry="9.72564" transform="matrix(0.97349 -0.228732 0.229407 0.973331 273.572 136.837)" fill="#D9D9D9"/>
<rect width="84.7929" height="18.3508" transform="matrix(0.953824 -0.300366 0.522182 0.852834 225.223 155.355)" fill="#D9D9D9"/>
<ellipse cx="9.00142" cy="9.72563" rx="9.00142" ry="9.72563" transform="matrix(0.97349 -0.228731 0.229407 0.973331 212.809 106.746)" fill="#D9D9D9"/>
<ellipse cx="9.00142" cy="9.72564" rx="9.00142" ry="9.72564" transform="matrix(0.97349 -0.228731 0.229407 0.973331 234.493 96.2229)" fill="#D9D9D9"/>
<rect width="35.1796" height="17.5862" transform="matrix(0.916855 -0.399221 0.357323 0.933981 215.645 107.81)" fill="#D9D9D9"/>
</svg>
