<svg width="112" height="71" viewBox="0 0 112 71" fill="none" xmlns="http://www.w3.org/2000/svg">
<ellipse cx="56" cy="35.1373" rx="56" ry="35.1373" fill="#5B5B5B"/>
<path d="M102.956 62.3312C104.257 63.2835 104.988 64.5752 104.988 65.9219C104.988 67.2687 104.257 68.5603 102.956 69.5127C101.655 70.465 99.8905 71 98.0504 71C96.2103 71 94.4456 70.465 93.1445 69.5127L56.5 42.6836L19.844 69.5042C18.5428 70.4565 16.7781 70.9916 14.938 70.9916C13.098 70.9916 11.3332 70.4565 10.0321 69.5042C8.73097 68.5519 8 67.2603 8 65.9135C8 64.5667 8.73097 63.2751 10.0321 62.3228L46.6881 35.5021L10.0436 8.67301C8.74251 7.72069 8.01154 6.42907 8.01154 5.08228C8.01154 3.7355 8.74251 2.44387 10.0436 1.49155C11.3448 0.539233 13.1095 0.00422369 14.9496 0.00422368C16.7897 0.00422367 18.5544 0.539233 19.8555 1.49155L56.5 28.3207L93.156 1.48733C94.4571 0.535008 96.2219 -2.24375e-08 98.062 0C99.902 2.24375e-08 101.667 0.535007 102.968 1.48733C104.269 2.43965 105 3.73127 105 5.07806C105 6.42484 104.269 7.71647 102.968 8.66879L66.3119 35.5021L102.956 62.3312Z" fill="#F24E1E" fill-opacity="0.75"/>
<ellipse cx="37.1592" cy="31.9555" rx="8.57177" ry="8.48337" fill="#D9D9D9"/>
<ellipse cx="20.3281" cy="49.1011" rx="4.95555" ry="4.19704" fill="#D9D9D9"/>
<ellipse cx="38.4536" cy="51.78" rx="4.95555" ry="4.19704" fill="#D9D9D9"/>
<ellipse cx="51.7131" cy="26.196" rx="8.3039" ry="7.72433" fill="#D9D9D9"/>
<ellipse cx="73.4103" cy="21.9987" rx="8.3039" ry="7.72433" fill="#D9D9D9"/>
<rect width="32.3228" height="14.0095" transform="matrix(0.987967 -0.154665 0.154634 0.987972 45.7305 19.8096)" fill="#D9D9D9"/>
<ellipse cx="6.55793" cy="2.98872" rx="6.55793" ry="2.98872" transform="matrix(-0.168251 -0.985744 0.985738 -0.168285 52.4214 55.7268)" fill="#D9D9D9"/>
<ellipse cx="6.55793" cy="2.98872" rx="6.55793" ry="2.98872" transform="matrix(-0.168251 -0.985744 0.985738 -0.168285 47.938 39.1091)" fill="#D9D9D9"/>
<rect width="25.2935" height="5.62204" transform="matrix(-0.243142 -0.969988 0.887787 -0.460277 52.6235 53.8323)" fill="#D9D9D9"/>
<ellipse cx="3.98711" cy="2.98901" rx="3.98711" ry="2.98901" transform="matrix(0.992336 0.12357 -0.123545 0.992339 36.9155 47.7659)" fill="#D9D9D9"/>
<ellipse cx="3.98711" cy="2.98901" rx="3.98711" ry="2.98901" transform="matrix(0.992336 0.12357 -0.123545 0.992339 47.4541 47.4414)" fill="#D9D9D9"/>
<rect width="15.4546" height="5.45601" transform="matrix(0.999996 -0.00161625 0.0679069 0.997697 37.9575 48.4172)" fill="#D9D9D9"/>
<ellipse cx="3.98724" cy="2.98892" rx="3.98724" ry="2.98892" transform="matrix(0.818087 -0.575095 0.575014 0.818144 18.7173 48.416)" fill="#D9D9D9"/>
<ellipse cx="3.98724" cy="2.98892" rx="3.98724" ry="2.98892" transform="matrix(0.818087 -0.575095 0.575014 0.818144 26.3062 41.0959)" fill="#D9D9D9"/>
<rect width="15.4551" height="5.45584" transform="matrix(0.739681 -0.672975 0.720442 0.693489 19.9268 48.1987)" fill="#D9D9D9"/>
<ellipse cx="5.49615" cy="2.98899" rx="5.49615" ry="2.98899" transform="matrix(0.957876 -0.287183 0.287127 0.957892 63.1445 38.8931)" fill="#D9D9D9"/>
<ellipse cx="5.49615" cy="2.98899" rx="5.49615" ry="2.98899" transform="matrix(0.957876 -0.287183 0.287127 0.957892 76.4341 33.2134)" fill="#D9D9D9"/>
<rect width="21.2246" height="5.54451" transform="matrix(0.927719 -0.373293 0.525074 0.85104 64.7651 38.9478)" fill="#D9D9D9"/>
<ellipse cx="2.97429" cy="2.98871" rx="2.97429" ry="2.98871" transform="matrix(0.0882652 0.996097 -0.996095 0.0882836 95.8833 40.5825)" fill="#D9D9D9"/>
<ellipse cx="2.97429" cy="2.98871" rx="2.97429" ry="2.98871" transform="matrix(0.0882652 0.996097 -0.996095 0.0882836 98.187 48.1802)" fill="#D9D9D9"/>
<rect width="11.6005" height="5.41131" transform="matrix(0.253122 0.967431 -0.973145 0.230204 95.4409 41.4563)" fill="#D9D9D9"/>
<ellipse cx="2.97426" cy="2.98874" rx="2.97426" ry="2.98874" transform="matrix(-0.348379 0.937354 -0.93733 -0.348444 88.4365 30.8237)" fill="#D9D9D9"/>
<ellipse cx="2.97426" cy="2.98874" rx="2.97426" ry="2.98874" transform="matrix(-0.348379 0.937354 -0.93733 -0.348444 87.251 38.6741)" fill="#D9D9D9"/>
<rect width="11.6003" height="5.41137" transform="matrix(-0.187205 0.982332 -0.977598 -0.210437 87.6616 31.4229)" fill="#D9D9D9"/>
<ellipse cx="2.97426" cy="2.98874" rx="2.97426" ry="2.98874" transform="matrix(-0.348379 0.937354 -0.93733 -0.348444 76.561 40.2893)" fill="#D9D9D9"/>
<ellipse cx="2.97426" cy="2.98874" rx="2.97426" ry="2.98874" transform="matrix(-0.348379 0.937354 -0.93733 -0.348444 75.3755 48.1396)" fill="#D9D9D9"/>
<rect width="11.6003" height="5.41138" transform="matrix(-0.187205 0.982332 -0.977598 -0.210437 75.7861 40.8884)" fill="#D9D9D9"/>
<ellipse cx="2.85964" cy="2.75508" rx="2.85964" ry="2.75508" transform="matrix(-0.415144 0.909756 -0.909723 -0.415216 72.0483 33.2612)" fill="#D9D9D9"/>
<ellipse cx="2.85964" cy="2.75508" rx="2.85964" ry="2.75508" transform="matrix(-0.415144 0.909756 -0.909723 -0.415216 70.3081 40.6807)" fill="#D9D9D9"/>
<rect width="11.1408" height="4.9928" transform="matrix(-0.26419 0.964483 -0.961541 -0.274618 71.2822 33.7905)" fill="#D9D9D9"/>
<ellipse cx="2.97426" cy="2.98874" rx="2.97426" ry="2.98874" transform="matrix(-0.348379 0.937354 -0.93733 -0.348444 79.418 28.2339)" fill="#D9D9D9"/>
<ellipse cx="2.97426" cy="2.98874" rx="2.97426" ry="2.98874" transform="matrix(-0.348379 0.937354 -0.93733 -0.348444 78.2324 36.0845)" fill="#D9D9D9"/>
<rect width="11.6003" height="5.41137" transform="matrix(-0.187205 0.982332 -0.977598 -0.210437 78.6431 28.833)" fill="#D9D9D9"/>
<ellipse cx="6.74801" cy="2.989" rx="6.74801" ry="2.989" transform="matrix(0.973405 -0.229092 0.229046 0.973416 67.1543 47.6782)" fill="#D9D9D9"/>
<ellipse cx="6.74801" cy="2.989" rx="6.74801" ry="2.989" transform="matrix(0.973405 -0.229092 0.229046 0.973416 83.9453 42.0581)" fill="#D9D9D9"/>
<rect width="26.0224" height="5.63782" transform="matrix(0.953684 -0.300821 0.521545 0.853208 69.1094 47.75)" fill="#D9D9D9"/>
<ellipse cx="2.76232" cy="2.989" rx="2.76232" ry="2.989" transform="matrix(0.973405 -0.229092 0.229046 0.973416 65.3003 32.8096)" fill="#D9D9D9"/>
<ellipse cx="2.76232" cy="2.989" rx="2.76232" ry="2.989" transform="matrix(0.973405 -0.229092 0.229046 0.973416 71.9541 29.575)" fill="#D9D9D9"/>
<rect width="10.7976" height="5.40418" transform="matrix(0.916619 -0.399782 0.356803 0.934173 66.1704 33.1365)" fill="#D9D9D9"/>
</svg>
